<?xml version="1.0" encoding="UTF-8"?><svg id="Capa_2" xmlns="http://www.w3.org/2000/svg" xmlns:xlink="http://www.w3.org/1999/xlink" viewBox="0 0 193.75 193.75"><defs><style>.cls-1{fill:url(#glass_apple);}.cls-2{fill:#f2f2f2;opacity:.2;}.cls-3{fill:#fff;}</style><linearGradient id="glass_apple" x1="28.37" y1="165.37" x2="165.37" y2="28.37" gradientUnits="userSpaceOnUse"><stop offset="0" stop-color="#fff" stop-opacity=".05"/><stop offset=".08" stop-color="#fff" stop-opacity=".06"/><stop offset=".12" stop-color="#fff" stop-opacity=".08"/><stop offset=".14" stop-color="#fff" stop-opacity=".13"/><stop offset=".15" stop-color="#fff" stop-opacity=".2"/><stop offset=".17" stop-color="#fff" stop-opacity=".28"/><stop offset=".18" stop-color="#fff" stop-opacity=".39"/><stop offset=".19" stop-color="#fff" stop-opacity=".52"/><stop offset=".21" stop-color="#fff" stop-opacity=".66"/><stop offset=".22" stop-color="#fff" stop-opacity=".83"/><stop offset=".22" stop-color="#fff"/><stop offset=".82" stop-color="#fff"/><stop offset=".83" stop-color="#fff" stop-opacity=".83"/><stop offset=".84" stop-color="#fff" stop-opacity=".66"/><stop offset=".85" stop-color="#fff" stop-opacity=".52"/><stop offset=".85" stop-color="#fff" stop-opacity=".39"/><stop offset=".87" stop-color="#fff" stop-opacity=".28"/><stop offset=".88" stop-color="#fff" stop-opacity=".2"/><stop offset=".89" stop-color="#fff" stop-opacity=".13"/><stop offset=".91" stop-color="#fff" stop-opacity=".08"/><stop offset=".93" stop-color="#fff" stop-opacity=".06"/><stop offset="1" stop-color="#fff" stop-opacity=".05"/></linearGradient></defs><g id="Capa_1-2"><circle class="cls-2" cx="96.87" cy="96.87" r="96.87"/><path class="cls-1" d="M96.87,3.23c51.64,0,93.65,42.01,93.65,93.65s-42.01,93.65-93.65,93.65S3.23,148.51,3.23,96.87,45.24,3.23,96.87,3.23M96.87,0C43.37,0,0,43.37,0,96.87s43.37,96.87,96.87,96.87,96.87-43.37,96.87-96.87S150.37,0,96.87,0h0Z"/><path class="cls-3" d="M122.65,157.66l-50.1.11c-6.64.01-11.66-4.71-13.69-10.67-6.67.5-12.04-4.07-12.07-10.61l-.07-16.02c-.03-6.63,4.88-11.54,11.54-11.34l.46-21.3c1.27-13.48,9.36-25.05,21.32-31.2-1.33-8.49,3.07-15.77,10.59-19.16,5.64-2.54,12.18-1.78,17.14,1.99,4.67,3.55,7.45,9.31,6.77,15.55-.18,1.67.37,2.06,1.61,2.76,11.88,6.74,19.42,19.14,19.49,32.84l.1,18.75c5.98-.33,11.23,3.97,11.25,9.91l.05,16.51c.02,6.71-4.92,11.84-12.01,11.36-1.59,5.2-6.13,10.53-12.38,10.54ZM109.08,54.59c.75-7.61-5.13-12.97-11.89-12.96-6.51,0-12.23,5.64-11.55,12.86,8.03-2.47,15.68-2.32,23.44.1ZM122.61,152.33c5.06-1.33,7.94-5.58,7.61-10.53l-.03-51.11c0-10.47-5.3-19.93-13-25.68-8.78-6.56-19.59-8.35-29.94-5.13-13.29,4.13-23.12,16.15-23.24,30.36l-.42,50.96c-.03,3.28.67,6.21,2.74,8.36s4.8,2.84,8.02,2.83l48.26-.06ZM58.29,141.46v-26.94c-3.03-.32-5.98,1.89-5.99,5.06l-.08,16.92c.03,3.28,2.88,5.83,6.07,4.96ZM141.52,136.68l.02-17.08c0-3.21-2.64-5.41-5.89-5l.07,26.94c2.95.58,5.79-1.61,5.79-4.86Z"/><path class="cls-3" d="M113.69,149.34h-31.83c-6.67.01-11.82-4.7-12.6-11.3l.02-22.48c0-6.15,4.82-12.51,11.29-12.55l33.69-.21c5.34,1.45,9.32,5.55,10.28,11.02l-.2,24.87c-.05,5.72-4.98,9.75-10.65,10.64ZM118.93,117.32c.67-2.24.06-4.79-1.32-6.52-1.5-1.87-3.81-2.56-6.36-2.56l-29.8.08c-2.27,0-4.36,1.23-5.39,2.65-1.36,1.88-1.61,4.11-1.29,6.36h44.15ZM118.99,122.57l-35.34.05c-1.62,0-3.24.02-4.86.03-1.44-.19-2.66-.25-4.14-.01l-.03,13.93c0,3.34,2.21,7.04,6.05,7.05l32.31.1c3.27.01,6.1-2.73,6.08-5.85l-.07-15.3Z"/></g></svg>