<?xml version="1.0" encoding="UTF-8"?><svg id="Capa_2" xmlns="http://www.w3.org/2000/svg" xmlns:xlink="http://www.w3.org/1999/xlink" viewBox="0 0 193.75 193.75"><defs><style>.cls-1{fill:url(#glass_apple);}.cls-2{fill:#f2f2f2;opacity:.2;}.cls-3{fill:#fff;}</style><linearGradient id="glass_apple" x1="28.37" y1="165.37" x2="165.37" y2="28.37" gradientUnits="userSpaceOnUse"><stop offset="0" stop-color="#fff" stop-opacity=".05"/><stop offset=".08" stop-color="#fff" stop-opacity=".06"/><stop offset=".12" stop-color="#fff" stop-opacity=".08"/><stop offset=".14" stop-color="#fff" stop-opacity=".13"/><stop offset=".15" stop-color="#fff" stop-opacity=".2"/><stop offset=".17" stop-color="#fff" stop-opacity=".28"/><stop offset=".18" stop-color="#fff" stop-opacity=".39"/><stop offset=".19" stop-color="#fff" stop-opacity=".52"/><stop offset=".21" stop-color="#fff" stop-opacity=".66"/><stop offset=".22" stop-color="#fff" stop-opacity=".83"/><stop offset=".22" stop-color="#fff"/><stop offset=".82" stop-color="#fff"/><stop offset=".83" stop-color="#fff" stop-opacity=".83"/><stop offset=".84" stop-color="#fff" stop-opacity=".66"/><stop offset=".85" stop-color="#fff" stop-opacity=".52"/><stop offset=".85" stop-color="#fff" stop-opacity=".39"/><stop offset=".87" stop-color="#fff" stop-opacity=".28"/><stop offset=".88" stop-color="#fff" stop-opacity=".2"/><stop offset=".89" stop-color="#fff" stop-opacity=".13"/><stop offset=".91" stop-color="#fff" stop-opacity=".08"/><stop offset=".93" stop-color="#fff" stop-opacity=".06"/><stop offset="1" stop-color="#fff" stop-opacity=".05"/></linearGradient></defs><g id="Capa_1-2"><circle class="cls-2" cx="96.87" cy="96.87" r="96.87"/><path class="cls-1" d="M96.87,3.23c51.64,0,93.65,42.01,93.65,93.65s-42.01,93.65-93.65,93.65S3.23,148.51,3.23,96.87,45.24,3.23,96.87,3.23M96.87,0C43.37,0,0,43.37,0,96.87s43.37,96.87,96.87,96.87,96.87-43.37,96.87-96.87S150.37,0,96.87,0h0Z"/><path class="cls-3" d="M72.78,145.54c-2.74-9.54-6.33-18.49-11.21-27.02-7.23-5.01-14.81-8.53-22.99-11.47-1.77-.63-2.94-1.51-3.03-3.27-.1-2.05,1.11-3.06,3-3.74,5.45-1.96,10.6-4.36,15.77-6.95l7.11-4.48c4.69-8.35,8.38-16.84,11.03-26,.37-1.29,1.48-2.01,2.49-2.17,1.21-.2,2.85.26,3.27,1.61,2.93,9.5,6.62,18.43,12.06,26.82,7.51,5.19,15.69,8.68,24.23,11.82,1.18.43,1.4,1.75,1.42,2.66.03,1.07-.27,2.5-1.56,2.98-8.44,3.12-16.45,6.6-24,11.72-5.34,7.91-9,16.52-11.59,25.75-.4,1.43-.78,2.41-2.18,2.93-1.17.44-2.45.07-3.82-1.2ZM75.55,134.75c3.14-7.92,6.09-14.59,10.87-20.7,5.95-4.34,12.2-7.31,19.34-10.54-7.07-3.01-13.52-6.18-19.51-10.57-4.58-6.51-7.63-13.39-10.66-20.91-3.26,7.59-6.06,14.42-10.12,20.95-6.26,4.33-12.7,7.48-19.75,10.5,7.34,3.41,13.86,6.38,19.92,10.85,4.18,6.42,6.68,13.24,9.9,20.42Z"/><path class="cls-3" d="M141.52,71.14c-3.27,4.53-4.69,14.04-7.66,14.4-1.09.13-2.79.06-3.36-1.29-1.91-4.5-3.41-9.05-5.75-13.38-4.36-2.41-8.88-3.81-13.38-5.9-1.67-.78-1.31-4.14.28-4.85,4.62-2.06,9.19-3.66,13.39-6.25l5.97-13.77c.71-1.63,4.4-1.45,5.05.12,1.94,4.72,3.33,9.19,5.63,13.75,4.13,2.07,8.2,4.05,12.57,5.62,1.31.47,2.18,1.27,2.43,2.58.19,1.01-.26,2.48-1.48,3.03-4.48,2.01-9.71,2.95-13.68,5.92ZM133.29,76.66c1.57-3.51,2.69-6.71,4.49-9.71,3.01-1.72,6.27-2.82,9.66-4.41-3.25-1.8-7.35-2.61-9.84-5.39l-4.36-9.01c-1.36,3.17-2.57,6.48-4.3,9.56-2.91,1.93-6.2,3.3-9.37,4.82,2.9,2,6.75,2.16,8.93,4.59l4.78,9.54Z"/><path class="cls-3" d="M140.54,153.49c-.42,1.02-1.63,1.27-2.45,1.29-.93.02-2.34-.28-2.77-1.39l-4.53-11.62-9.87-4.33c-1.59-.7-2.96-1.27-3.02-2.91-.07-1.85.94-2.87,2.7-3.64l9.99-4.38,4.89-11.98c.48-1.17,1.64-1.53,2.63-1.53.87,0,2.43.19,2.82,1.25l4.5,12.13c3.63,2.05,7.41,3.6,11.35,5.06,1.08.4,1.42,1.81,1.42,2.65,0,1.04-.52,2.28-1.7,2.8l-11.18,4.88-4.79,11.74ZM138.08,146.05c1.42-2.89,1.98-5.56,3.51-8.02,2.56-1.71,5.36-2.47,8.5-3.87-2.78-1.18-5.59-2.14-8.15-3.93-1.63-2.63-2.4-5.37-3.76-8.64-1.07,2.92-2.12,5.69-3.62,8.62-2.61,1.54-5.35,2.75-8.04,3.9l7.85,3.7,3.7,8.24Z"/></g></svg>