<?xml version="1.0" encoding="UTF-8"?><svg id="Capa_2" xmlns="http://www.w3.org/2000/svg" xmlns:xlink="http://www.w3.org/1999/xlink" viewBox="0 0 193.75 193.75"><defs><style>.cls-1{fill:url(#glass_apple);}.cls-2{fill:#f2f2f2;opacity:.2;}.cls-3{fill:#fff;}</style><linearGradient id="glass_apple" x1="28.37" y1="165.37" x2="165.37" y2="28.37" gradientUnits="userSpaceOnUse"><stop offset="0" stop-color="#fff" stop-opacity=".05"/><stop offset=".08" stop-color="#fff" stop-opacity=".06"/><stop offset=".12" stop-color="#fff" stop-opacity=".08"/><stop offset=".14" stop-color="#fff" stop-opacity=".13"/><stop offset=".15" stop-color="#fff" stop-opacity=".2"/><stop offset=".17" stop-color="#fff" stop-opacity=".28"/><stop offset=".18" stop-color="#fff" stop-opacity=".39"/><stop offset=".19" stop-color="#fff" stop-opacity=".52"/><stop offset=".21" stop-color="#fff" stop-opacity=".66"/><stop offset=".22" stop-color="#fff" stop-opacity=".83"/><stop offset=".22" stop-color="#fff"/><stop offset=".82" stop-color="#fff"/><stop offset=".83" stop-color="#fff" stop-opacity=".83"/><stop offset=".84" stop-color="#fff" stop-opacity=".66"/><stop offset=".85" stop-color="#fff" stop-opacity=".52"/><stop offset=".85" stop-color="#fff" stop-opacity=".39"/><stop offset=".87" stop-color="#fff" stop-opacity=".28"/><stop offset=".88" stop-color="#fff" stop-opacity=".2"/><stop offset=".89" stop-color="#fff" stop-opacity=".13"/><stop offset=".91" stop-color="#fff" stop-opacity=".08"/><stop offset=".93" stop-color="#fff" stop-opacity=".06"/><stop offset="1" stop-color="#fff" stop-opacity=".05"/></linearGradient></defs><g id="Capa_1-2"><circle class="cls-2" cx="96.87" cy="96.87" r="96.87"/><path class="cls-1" d="M96.87,3.23c51.64,0,93.65,42.01,93.65,93.65s-42.01,93.65-93.65,93.65S3.23,148.51,3.23,96.87,45.24,3.23,96.87,3.23M96.87,0C43.37,0,0,43.37,0,96.87s43.37,96.87,96.87,96.87,96.87-43.37,96.87-96.87S150.37,0,96.87,0h0Z"/><path class="cls-3" d="M130.75,143.59c0,6.36-5.94,11.8-11.83,11.84l-41.84.26c-6.47.04-13.84-4.26-13.87-11.47l-.36-91.63c-.03-7.24,4.3-14.4,12.12-14.42l43.97-.13c5.63-.02,11.96,6.46,11.95,12.79l-.14,92.75ZM118.28,150.05c3.99-.02,6.52-3.05,7.17-6.75l.05-93.38c-.88-3.45-3.72-6.38-7.38-6.39l-42.72-.08c-2.98.85-6.97,2.82-6.96,6.48l.09,93.86c0,4.88,5.69,6.53,9.49,6.51l40.28-.24Z"/><path class="cls-3" d="M112.23,50.03c-.21,3.21-2.33,4.88-5.26,4.84l-21.77-.26c-2.48-.03-4.14-3.33-3.85-5.41.23-1.66,1.45-2.2,2.64-2.21,1.29-.02,2.1,1.01,2.76,2.44l20.22-.09c.74-1.31,1.64-2.44,2.84-2.31,1.49.16,2.53,1.26,2.42,3.01Z"/></g></svg>