<?xml version="1.0" encoding="UTF-8"?><svg id="Capa_2" xmlns="http://www.w3.org/2000/svg" xmlns:xlink="http://www.w3.org/1999/xlink" viewBox="0 0 193.75 193.75"><defs><style>.cls-1{fill:url(#glass_apple);}.cls-2{fill:#f2f2f2;opacity:.2;}.cls-3{fill:#fff;}</style><linearGradient id="glass_apple" x1="28.37" y1="165.37" x2="165.37" y2="28.37" gradientUnits="userSpaceOnUse"><stop offset="0" stop-color="#fff" stop-opacity=".05"/><stop offset=".08" stop-color="#fff" stop-opacity=".06"/><stop offset=".12" stop-color="#fff" stop-opacity=".08"/><stop offset=".14" stop-color="#fff" stop-opacity=".13"/><stop offset=".15" stop-color="#fff" stop-opacity=".2"/><stop offset=".17" stop-color="#fff" stop-opacity=".28"/><stop offset=".18" stop-color="#fff" stop-opacity=".39"/><stop offset=".19" stop-color="#fff" stop-opacity=".52"/><stop offset=".21" stop-color="#fff" stop-opacity=".66"/><stop offset=".22" stop-color="#fff" stop-opacity=".83"/><stop offset=".22" stop-color="#fff"/><stop offset=".82" stop-color="#fff"/><stop offset=".83" stop-color="#fff" stop-opacity=".83"/><stop offset=".84" stop-color="#fff" stop-opacity=".66"/><stop offset=".85" stop-color="#fff" stop-opacity=".52"/><stop offset=".85" stop-color="#fff" stop-opacity=".39"/><stop offset=".87" stop-color="#fff" stop-opacity=".28"/><stop offset=".88" stop-color="#fff" stop-opacity=".2"/><stop offset=".89" stop-color="#fff" stop-opacity=".13"/><stop offset=".91" stop-color="#fff" stop-opacity=".08"/><stop offset=".93" stop-color="#fff" stop-opacity=".06"/><stop offset="1" stop-color="#fff" stop-opacity=".05"/></linearGradient></defs><g id="Capa_1-2"><circle class="cls-2" cx="96.87" cy="96.87" r="96.87"/><path class="cls-1" d="M96.87,3.23c51.64,0,93.65,42.01,93.65,93.65s-42.01,93.65-93.65,93.65S3.23,148.51,3.23,96.87,45.24,3.23,96.87,3.23M96.87,0C43.37,0,0,43.37,0,96.87s43.37,96.87,96.87,96.87,96.87-43.37,96.87-96.87S150.37,0,96.87,0h0Z"/><path class="cls-3" d="M94.9,153.28c-6.22-2.47-11.56-5.7-16.81-9.55-9.54-7-16.95-16.08-21.34-27.12-1.91-4.79-3.38-9.58-3.4-14.81l-.15-38.83c0-1.57.56-3.65,2.2-4.16,7.61-2.35,14.95-4.74,22.2-8.13l17.1-10c2.07-1.21,4.21-.43,6.01.8,11.05,7.55,22.95,12.96,35.86,16.65,1.61.46,4.01,1.46,4.01,3.54l-.09,39.56c-.02,9.67-3.99,18.33-9.27,26.25-7.42,11.14-17.99,19.35-30.06,25.03-1.89.89-4.03,1.64-6.23.77ZM97.08,148.32c8.04-3.72,14.64-8.09,20.84-13.68,6.03-5.68,10.79-12.22,14.03-19.82,2.04-5.15,3.29-10.2,3.31-15.81v-35.46c-13.87-3.87-26.48-9.69-38.3-17.67-11.7,8.14-24.36,13.88-38.32,17.67l.02,36.77c.23,5.65,1.44,10.79,3.77,15.83,6.29,14.78,19.79,25.77,34.63,32.16Z"/><path class="cls-3" d="M85.31,121.59c-6.3-4.11-10.23-10.67-10.24-18.09,0-3.65,1.17-7.1,2.81-10.33,4.48-8.86,9.67-17.03,15.14-25.27,1-1.51,2.1-2.36,3.81-2.44,1.9-.09,2.91.97,3.98,2.61,5.61,8.56,11.1,16.93,15.63,26.08,5.01,10.14,1.6,21.62-7.92,27.59-7.07,4.43-15.92,4.6-23.2-.15ZM108.78,114.66c5.44-5.62,5.86-12.92,2.36-19.5-4.26-8-8.81-15.49-14.25-23.4l-13.63,22.43c-1.73,2.84-2.79,5.88-2.83,9.28-.09,6.77,4.47,12.57,10.1,14.93,6.49,2.73,13.43,1.24,18.26-3.74Z"/></g></svg>