<svg xmlns="http://www.w3.org/2000/svg" viewBox="88 1749 68 74">
  <path fill="#9673fa" stroke="#f2f2f2" stroke-linecap="round" stroke-linejoin="round" stroke-width=".22" d="M111.26,1811.45l-17.34,6.43c-.77.29-1.46.11-1.96-.29-.61-.48-.75-1.21-.54-2.02l4.77-18.65c.29-1.13.72-1.84,1.5-2.66l7.84-8.19,29.45-31.26c2.95-3.13,7.68-3.97,11.18-1.11,1.91,1.55,3.7,3.19,5.35,5.19,2.32,2.81,2.54,7.69,0,10.41l-12.11,12.97-25.67,27.55c-.74.79-1.38,1.22-2.47,1.62ZM148.76,1766.95c1.49-1.64,1.01-4.23-.19-5.79-1.44-1.54-2.84-2.83-4.39-4.22-1.96-1.76-4.94-1.33-6.71.56l-3.81,4.04,10.69,10.27,4.42-4.85ZM100.94,1811.29l9.72-3.56,10.55-11.23,20.6-22.12-10.75-10.1-21.13,22.48-10.08,10.66-4,15.79c1.82-.48,3.34-1.21,5.09-1.92Z"/>
  <path fill="#9673fa" stroke="#f2f2f2" stroke-linecap="round" stroke-linejoin="round" stroke-width=".15" d="M141.45,1818.45h-23.88c-.58.01-.96-.46-1.09-1.64-.08-.72.16-2.21.72-2.21h24.14c.52-.01.87.84.9,1.75s-.22,1.81-.79,2.1Z"/>
</svg>
