<svg xmlns="http://www.w3.org/2000/svg" viewBox="85 1505 76 36">
  <path fill="#9673fa" stroke="#f2f2f2" stroke-linecap="round" stroke-linejoin="round" stroke-width=".25" d="M150.67,1518.08c1.33,1.38,3.84-.55,3.95-1.48.1-.82.1-1.98-.91-3.01-16.93-17.14-44.16-16.79-61.15.31-1.39,1.4-.86,3.09.36,4.08,1.4,1.13,2.47.66,3.88-.71,15.3-14.98,38.82-14.79,53.88.82Z"/>
  <path fill="#9673fa" stroke="#f2f2f2" stroke-linecap="round" stroke-linejoin="round" stroke-width=".25" d="M141.42,1526.89c1.05,1.04,2.95.27,3.73-.41.61-.53,1.67-1.75.71-3.1-12.11-12.4-31.18-12.76-44.05-1.22-1.44,1.29-1.81,2.77-.86,4.1s2.98,1.62,4.35.29c10.19-9.93,26.07-9.7,36.13.33Z"/>
  <path fill="#9673fa" stroke="#f2f2f2" stroke-linecap="round" stroke-linejoin="round" stroke-width=".25" d="M132.67,1535.61c1.12.91,2.75.33,3.47-.2.67-.49,1.74-2.11.71-3.12-7.3-7.22-18.83-7.54-26.37-.66-1.3,1.18-1.41,2.59-.56,3.68.68.87,2.47,1.52,3.7.48,5.62-4.75,13.35-4.84,19.06-.19Z"/>
</svg>
