<svg xmlns="http://www.w3.org/2000/svg" viewBox="88 1914 68 72">
  <path fill="#9673fa" stroke="#f2f2f2" stroke-linecap="round" stroke-linejoin="round" stroke-width=".25" d="M135.33,1981.3l-27.5.02c-2.82,0-5.46-2.46-5.49-5.19l-.11-9.65-3.22-.03c-3.78.35-7.59-2.42-7.61-6.42l-.07-20.34c.46-3.39,3.15-6.07,6.59-6.25l6.09-.03-.04-8.52c-.02-3.25,2.09-6.69,5.65-6.71l23.09-.09c3.2-.01,6.21,2.25,6.24,5.51l.07,9.81,6.28.05c3.48.03,6.13,2.98,6.47,6.41l-.08,20.17c-.02,4.09-4,6.84-7.85,6.41l-2.99.04-.06,9.33c-.02,2.74-2.47,5.5-5.47,5.5ZM136.11,1924.03c0-1.7-1.5-2.75-3.05-2.98h-22.92c-1.5.09-3.18,1.13-3.18,2.72l-.06,9.64,29.26-.03-.05-9.36ZM140.81,1954.75l.02,8.68,4.1.03c2.01.02,3.86-1.54,3.87-3.65l.1-18.48c.01-2.21-1.02-4.86-3.64-4.86l-46.93-.06c-2.34,0-4.1,1.72-4.11,4.02v19.04c0,2.03,1.46,3.96,3.5,3.97l4.52.03.03-8.77c0-.47.55-1.2,1.12-1.2h35.92c.73,0,1.49.43,1.49,1.26ZM135.18,1978.35c1.64-.17,2.75-1.4,2.75-2.99l.02-18.9h-32.74s0,18.9,0,18.9c0,1.63,1.14,2.85,2.75,2.98h27.23Z"/>
  <circle fill="#9673fa" stroke="#f2f2f2" stroke-linecap="round" stroke-linejoin="round" stroke-width=".25" cx="141.19" cy="1943.45" r="2.31"/>
  <path fill="#9673fa" stroke="#f2f2f2" stroke-linecap="round" stroke-linejoin="round" stroke-width=".25" d="M131.43,1972.28h-19.7c-.84,0-1.36-1.04-1.3-1.59.1-.92.81-1.43,1.76-1.43l19.38.05c.79,0,1.14.96,1.12,1.52-.02.54-.41,1.44-1.27,1.44Z"/>
  <path fill="#9673fa" stroke="#f2f2f2" stroke-linecap="round" stroke-linejoin="round" stroke-width=".25" d="M127.52,1965.42h-11.83c-.94,0-1.61-.56-1.65-1.42-.03-.75.54-1.56,1.46-1.56h12.01c.94,0,1.55.61,1.61,1.4.07.93-.6,1.58-1.61,1.58Z"/>
</svg>
