<?xml version="1.0" encoding="UTF-8"?><svg id="Capa_2" xmlns="http://www.w3.org/2000/svg" xmlns:xlink="http://www.w3.org/1999/xlink" viewBox="0 0 120.09 120.09"><defs><style>.cls-1{fill:url(#glass_apple);}.cls-2{opacity:.2;}.cls-2,.cls-3{fill:#f2f2f2;}.cls-3{stroke:#f2f2f2;stroke-linecap:round;stroke-linejoin:round;}</style><linearGradient id="glass_apple" x1="17.59" y1="102.5" x2="102.5" y2="17.59" gradientUnits="userSpaceOnUse"><stop offset="0" stop-color="#fff" stop-opacity=".05"/><stop offset=".08" stop-color="#fff" stop-opacity=".06"/><stop offset=".12" stop-color="#fff" stop-opacity=".08"/><stop offset=".14" stop-color="#fff" stop-opacity=".13"/><stop offset=".15" stop-color="#fff" stop-opacity=".2"/><stop offset=".17" stop-color="#fff" stop-opacity=".28"/><stop offset=".18" stop-color="#fff" stop-opacity=".39"/><stop offset=".19" stop-color="#fff" stop-opacity=".52"/><stop offset=".21" stop-color="#fff" stop-opacity=".66"/><stop offset=".22" stop-color="#fff" stop-opacity=".83"/><stop offset=".22" stop-color="#fff"/><stop offset=".82" stop-color="#fff"/><stop offset=".83" stop-color="#fff" stop-opacity=".83"/><stop offset=".84" stop-color="#fff" stop-opacity=".66"/><stop offset=".85" stop-color="#fff" stop-opacity=".52"/><stop offset=".85" stop-color="#fff" stop-opacity=".39"/><stop offset=".87" stop-color="#fff" stop-opacity=".28"/><stop offset=".88" stop-color="#fff" stop-opacity=".2"/><stop offset=".89" stop-color="#fff" stop-opacity=".13"/><stop offset=".91" stop-color="#fff" stop-opacity=".08"/><stop offset=".93" stop-color="#fff" stop-opacity=".06"/><stop offset="1" stop-color="#fff" stop-opacity=".05"/></linearGradient></defs><g id="Capa_1-2"><circle class="cls-2" cx="60.04" cy="60.04" r="60.04"/><path class="cls-1" d="M60.04,2c32.01,0,58.04,26.04,58.04,58.04s-26.04,58.04-58.04,58.04S2,92.05,2,60.04,28.04,2,60.04,2M60.04,0C26.88,0,0,26.88,0,60.04s26.88,60.04,60.04,60.04,60.04-26.88,60.04-60.04S93.21,0,60.04,0h0Z"/><path class="cls-3" d="M87.26,53.86c1.33,1.38,3.84-.55,3.95-1.48.1-.82.1-1.98-.91-3.01-16.93-17.14-44.16-16.79-61.15.31-1.39,1.4-.86,3.09.36,4.08,1.4,1.13,2.47.66,3.88-.71,15.3-14.98,38.82-14.79,53.88.82Z"/><path class="cls-3" d="M78.02,62.67c1.05,1.04,2.95.27,3.73-.41.61-.53,1.67-1.75.71-3.1-12.11-12.4-31.18-12.76-44.05-1.22-1.44,1.29-1.81,2.77-.86,4.1s2.98,1.62,4.35.29c10.19-9.93,26.07-9.7,36.13.33Z"/><path class="cls-3" d="M69.26,71.39c1.12.91,2.75.33,3.47-.2.67-.49,1.74-2.11.71-3.12-7.3-7.22-18.83-7.54-26.37-.66-1.3,1.18-1.41,2.59-.56,3.68.68.87,2.47,1.52,3.7.48,5.62-4.75,13.35-4.84,19.06-.19Z"/><circle class="cls-3" cx="59.65" cy="79.02" r="4.38"/></g></svg>