<?xml version="1.0" encoding="UTF-8"?><svg id="Capa_2" xmlns="http://www.w3.org/2000/svg" xmlns:xlink="http://www.w3.org/1999/xlink" viewBox="0 0 120.09 120.09"><defs><style>.cls-1{fill:url(#glass_apple);}.cls-2{fill:#f2f2f2;opacity:.2;}.cls-3{fill:#fff;}</style><linearGradient id="glass_apple" x1="17.59" y1="102.5" x2="102.5" y2="17.59" gradientUnits="userSpaceOnUse"><stop offset="0" stop-color="#fff" stop-opacity=".05"/><stop offset=".08" stop-color="#fff" stop-opacity=".06"/><stop offset=".12" stop-color="#fff" stop-opacity=".08"/><stop offset=".14" stop-color="#fff" stop-opacity=".13"/><stop offset=".15" stop-color="#fff" stop-opacity=".2"/><stop offset=".17" stop-color="#fff" stop-opacity=".28"/><stop offset=".18" stop-color="#fff" stop-opacity=".39"/><stop offset=".19" stop-color="#fff" stop-opacity=".52"/><stop offset=".21" stop-color="#fff" stop-opacity=".66"/><stop offset=".22" stop-color="#fff" stop-opacity=".83"/><stop offset=".22" stop-color="#fff"/><stop offset=".82" stop-color="#fff"/><stop offset=".83" stop-color="#fff" stop-opacity=".83"/><stop offset=".84" stop-color="#fff" stop-opacity=".66"/><stop offset=".85" stop-color="#fff" stop-opacity=".52"/><stop offset=".85" stop-color="#fff" stop-opacity=".39"/><stop offset=".87" stop-color="#fff" stop-opacity=".28"/><stop offset=".88" stop-color="#fff" stop-opacity=".2"/><stop offset=".89" stop-color="#fff" stop-opacity=".13"/><stop offset=".91" stop-color="#fff" stop-opacity=".08"/><stop offset=".93" stop-color="#fff" stop-opacity=".06"/><stop offset="1" stop-color="#fff" stop-opacity=".05"/></linearGradient></defs><g id="Capa_1-2"><circle class="cls-2" cx="60.04" cy="60.04" r="60.04"/><path class="cls-1" d="M60.04,2c32.01,0,58.04,26.04,58.04,58.04s-26.04,58.04-58.04,58.04S2,92.05,2,60.04,28.04,2,60.04,2M60.04,0C26.88,0,0,26.88,0,60.04s26.88,60.04,60.04,60.04,60.04-26.88,60.04-60.04S93.21,0,60.04,0h0Z"/><path class="cls-3" d="M80.4,75.92l-39.06-.04c-9.59,0-16.15-8.21-15.2-17.73.72-7.19,6.8-14.02,14.61-13.98l40.43.23c8.01.05,12.99,8.73,12.86,15.64-.15,8.06-5.31,14.31-13.64,15.87ZM80.49,49.86l-39.78.18c-5.41.03-8.94,5.35-8.86,10.23.08,4.62,3.49,9.75,8.82,9.73l39.47-.13c4.97-.02,7.91-5.51,8.08-9.56.19-4.8-2.66-8.88-7.74-10.46Z"/><path class="cls-3" d="M78.2,62.87l-34.01.28c-2.16.02-4.08-.91-4.2-2.98-.11-1.93,1.35-3.65,3.58-3.63l34.69.18c1.58,0,1.89,2.1,1.89,2.99s-.25,3.15-1.95,3.17Z"/></g></svg>