<?xml version="1.0" encoding="UTF-8"?><svg id="Capa_2" xmlns="http://www.w3.org/2000/svg" xmlns:xlink="http://www.w3.org/1999/xlink" viewBox="0 0 120.09 120.09"><defs><style>.cls-1{fill:url(#glass_apple);}.cls-2{fill:#f2f2f2;opacity:.2;}.cls-3{fill:#fff;}</style><linearGradient id="glass_apple" x1="17.59" y1="102.5" x2="102.5" y2="17.59" gradientUnits="userSpaceOnUse"><stop offset="0" stop-color="#fff" stop-opacity=".05"/><stop offset=".08" stop-color="#fff" stop-opacity=".06"/><stop offset=".12" stop-color="#fff" stop-opacity=".08"/><stop offset=".14" stop-color="#fff" stop-opacity=".13"/><stop offset=".15" stop-color="#fff" stop-opacity=".2"/><stop offset=".17" stop-color="#fff" stop-opacity=".28"/><stop offset=".18" stop-color="#fff" stop-opacity=".39"/><stop offset=".19" stop-color="#fff" stop-opacity=".52"/><stop offset=".21" stop-color="#fff" stop-opacity=".66"/><stop offset=".22" stop-color="#fff" stop-opacity=".83"/><stop offset=".22" stop-color="#fff"/><stop offset=".82" stop-color="#fff"/><stop offset=".83" stop-color="#fff" stop-opacity=".83"/><stop offset=".84" stop-color="#fff" stop-opacity=".66"/><stop offset=".85" stop-color="#fff" stop-opacity=".52"/><stop offset=".85" stop-color="#fff" stop-opacity=".39"/><stop offset=".87" stop-color="#fff" stop-opacity=".28"/><stop offset=".88" stop-color="#fff" stop-opacity=".2"/><stop offset=".89" stop-color="#fff" stop-opacity=".13"/><stop offset=".91" stop-color="#fff" stop-opacity=".08"/><stop offset=".93" stop-color="#fff" stop-opacity=".06"/><stop offset="1" stop-color="#fff" stop-opacity=".05"/></linearGradient></defs><g id="Capa_1-2"><circle class="cls-2" cx="60.04" cy="60.04" r="60.04"/><path class="cls-1" d="M60.04,2c32.01,0,58.04,26.04,58.04,58.04s-26.04,58.04-58.04,58.04S2,92.05,2,60.04,28.04,2,60.04,2M60.04,0C26.88,0,0,26.88,0,60.04s26.88,60.04,60.04,60.04,60.04-26.88,60.04-60.04S93.21,0,60.04,0h0Z"/><path class="cls-3" d="M63.16,66.07c0,1.62-2.1,2.22-3.18,2.14-1.11-.09-2.75-.94-2.74-2.49l.06-13.56c0-1.26,1.86-1.82,2.71-1.93,1.04-.14,3.13.46,3.14,1.92v13.92Z"/><path class="cls-3" d="M80.37,39.74c1.49-1.86,3.55-1.34,4.84-.17s2.14,3.33.47,4.7l-3.54,2.9c8.22,10.1,8.81,24.37,1.05,35.07-7.4,10.2-20.86,14.6-33.44,9.9-11.23-4.2-19.17-15.77-18.28-28.56.98-14.21,11.69-25.2,25.62-27.04.55-1.16.77-3.91-.15-4.44l-5.28-.37c-1.48-.1-1.95-1.82-1.78-3.02.16-1.07,1.15-2.5,2.59-2.52l14.51-.15c1.57-.02,2.77.94,3.06,2.14.37,1.53.02,3.44-1.8,3.58l-4.11.33c-1.4.11-1.11,3.22-.6,4.57,5.38.5,9.76,2.86,14.03,5.86,1.35-.52,1.96-1.76,2.8-2.81ZM82.96,65.24c0-12.65-10.25-22.9-22.9-22.9s-22.9,10.25-22.9,22.9,10.25,22.9,22.9,22.9,22.9-10.25,22.9-22.9Z"/></g></svg>