<?xml version="1.0" encoding="UTF-8"?><svg id="Capa_2" xmlns="http://www.w3.org/2000/svg" xmlns:xlink="http://www.w3.org/1999/xlink" viewBox="0 0 120.09 120.09"><defs><style>.cls-1{fill:url(#glass_apple);}.cls-2{fill:#f2f2f2;opacity:.2;}.cls-3{fill:#fff;}</style><linearGradient id="glass_apple" x1="17.59" y1="102.5" x2="102.5" y2="17.59" gradientUnits="userSpaceOnUse"><stop offset="0" stop-color="#fff" stop-opacity=".05"/><stop offset=".08" stop-color="#fff" stop-opacity=".06"/><stop offset=".12" stop-color="#fff" stop-opacity=".08"/><stop offset=".14" stop-color="#fff" stop-opacity=".13"/><stop offset=".15" stop-color="#fff" stop-opacity=".2"/><stop offset=".17" stop-color="#fff" stop-opacity=".28"/><stop offset=".18" stop-color="#fff" stop-opacity=".39"/><stop offset=".19" stop-color="#fff" stop-opacity=".52"/><stop offset=".21" stop-color="#fff" stop-opacity=".66"/><stop offset=".22" stop-color="#fff" stop-opacity=".83"/><stop offset=".22" stop-color="#fff"/><stop offset=".82" stop-color="#fff"/><stop offset=".83" stop-color="#fff" stop-opacity=".83"/><stop offset=".84" stop-color="#fff" stop-opacity=".66"/><stop offset=".85" stop-color="#fff" stop-opacity=".52"/><stop offset=".85" stop-color="#fff" stop-opacity=".39"/><stop offset=".87" stop-color="#fff" stop-opacity=".28"/><stop offset=".88" stop-color="#fff" stop-opacity=".2"/><stop offset=".89" stop-color="#fff" stop-opacity=".13"/><stop offset=".91" stop-color="#fff" stop-opacity=".08"/><stop offset=".93" stop-color="#fff" stop-opacity=".06"/><stop offset="1" stop-color="#fff" stop-opacity=".05"/></linearGradient></defs><g id="Capa_1-2"><path class="cls-3" d="M63.85,63.13c-.72,3.14-3,4.8-5.59,4.89-2.66.09-5.28-1.24-5.99-4.16-.51-2.1-.39-4.53-.1-6.67.42-3.1,2.89-4.9,5.59-4.98,3.08-.1,5.47,1.84,6.07,5.09.33,1.77.47,3.88.02,5.82ZM57.77,55.21c-2.22.3-2.89,5.18-1.54,8.6.35.89,1.36,1.26,2.05,1.21,3.11-.23,2.98-10.29-.5-9.81Z"/><path class="cls-3" d="M77.5,63.15c-.58,3.2-2.95,4.92-5.61,4.94-2.96.03-5.29-1.77-5.97-4.87-.99-4.5.07-9.62,4.13-10.75,2.61-.73,5.34.02,6.65,2.48s1.32,5.39.81,8.2ZM71.86,55.28c-.67-.04-1.54.36-1.85,1.22-1.42,3.97-.65,8.75,1.88,8.64,3.23-.14,2.84-9.69-.03-9.86Z"/><path class="cls-3" d="M87.79,60.07c-.05,16.55-12.17,27.81-27.67,32.21-14.37-3.93-26.82-14.73-27.8-29.77l-.07-21.56c0-2.2,2.54-3.34,4.24-3.94,6.95-2.43,13.66-4.66,20.01-8.23,2.51-1.41,4.65-1.17,7.27-.06l20.58,8.66c2.18.92,3.5,2.38,3.49,4.89l-.05,17.8ZM74.26,78.68c5.53-4.89,8.32-11.48,8.31-18.66l-.02-17.64c-7.21-2.4-13.74-5.14-20.42-8.46-.77-.38-2.04-.91-2.92-.44-6.97,3.66-14.12,6.27-21.67,8.69l-.18,13.73c-.22,16.58,7.39,25.08,22.76,31.01,5.22-1.86,9.94-4.37,14.15-8.23Z"/><path class="cls-3" d="M45.75,67.74l-.11-11.17c-1.28.84-2.5,1.72-3.44,1.04-.53-.38-.45-1.67-.29-2.32.1-.38,4.89-4.2,7.44-2.66l.02,15.03c-1.11.36-2.16.39-3.62.08Z"/><circle class="cls-2" cx="60.04" cy="60.04" r="60.04"/><path class="cls-1" d="M60.04,2c32.01,0,58.04,26.04,58.04,58.04s-26.04,58.04-58.04,58.04S2,92.05,2,60.04,28.04,2,60.04,2M60.04,0C26.88,0,0,26.88,0,60.04s26.88,60.04,60.04,60.04,60.04-26.88,60.04-60.04S93.21,0,60.04,0h0Z"/></g></svg>