<?xml version="1.0" encoding="UTF-8"?><svg id="Capa_2" xmlns="http://www.w3.org/2000/svg" xmlns:xlink="http://www.w3.org/1999/xlink" viewBox="0 0 120.09 120.09"><defs><style>.cls-1{fill:url(#glass_apple);}.cls-2{fill:#f2f2f2;opacity:.2;}.cls-3{fill:#fff;}</style><linearGradient id="glass_apple" x1="17.59" y1="102.5" x2="102.5" y2="17.59" gradientUnits="userSpaceOnUse"><stop offset="0" stop-color="#fff" stop-opacity=".05"/><stop offset=".08" stop-color="#fff" stop-opacity=".06"/><stop offset=".12" stop-color="#fff" stop-opacity=".08"/><stop offset=".14" stop-color="#fff" stop-opacity=".13"/><stop offset=".15" stop-color="#fff" stop-opacity=".2"/><stop offset=".17" stop-color="#fff" stop-opacity=".28"/><stop offset=".18" stop-color="#fff" stop-opacity=".39"/><stop offset=".19" stop-color="#fff" stop-opacity=".52"/><stop offset=".21" stop-color="#fff" stop-opacity=".66"/><stop offset=".22" stop-color="#fff" stop-opacity=".83"/><stop offset=".22" stop-color="#fff"/><stop offset=".82" stop-color="#fff"/><stop offset=".83" stop-color="#fff" stop-opacity=".83"/><stop offset=".84" stop-color="#fff" stop-opacity=".66"/><stop offset=".85" stop-color="#fff" stop-opacity=".52"/><stop offset=".85" stop-color="#fff" stop-opacity=".39"/><stop offset=".87" stop-color="#fff" stop-opacity=".28"/><stop offset=".88" stop-color="#fff" stop-opacity=".2"/><stop offset=".89" stop-color="#fff" stop-opacity=".13"/><stop offset=".91" stop-color="#fff" stop-opacity=".08"/><stop offset=".93" stop-color="#fff" stop-opacity=".06"/><stop offset="1" stop-color="#fff" stop-opacity=".05"/></linearGradient></defs><g id="Capa_1-2"><circle class="cls-2" cx="60.04" cy="60.04" r="60.04"/><path class="cls-1" d="M60.04,2c32.01,0,58.04,26.04,58.04,58.04s-26.04,58.04-58.04,58.04S2,92.05,2,60.04,28.04,2,60.04,2M60.04,0C26.88,0,0,26.88,0,60.04s26.88,60.04,60.04,60.04,60.04-26.88,60.04-60.04S93.21,0,60.04,0h0Z"/><circle class="cls-3" cx="42.28" cy="57.93" r="3.82"/><circle class="cls-3" cx="77.32" cy="57.9" r="3.6"/><circle class="cls-3" cx="50.19" cy="45.83" r="3.62"/><circle class="cls-3" cx="71.31" cy="47.11" r="3.58"/><circle class="cls-3" cx="60.72" cy="43.93" r="3.6"/><circle class="cls-3" cx="47.26" cy="72.65" r="3.49"/><path class="cls-3" d="M69.55,72.76c-1.43.01-2.38,1-2.65,1.68-1.02,2.56,3.99,5.39,1.67,11.08-3.45,8.47-23.58,7.38-33.93-5.58-10.34-12.96-8.17-32.27,4.52-42.98,11.38-9.61,27.83-10.45,40.02-2.06,8.02,5.52,12.95,14.39,12.8,23.92-.13,8.21-6.05,13.83-14.04,13.89l-8.4.06ZM76.83,67.42c5.47.25,9.64-2.96,9.72-8.73.06-4.12-1.34-8.61-3.72-12.15-9.28-13.82-28.21-15.87-40.57-4.83-5.72,5.1-8.47,12.22-8.34,19.93.25,14.53,12.48,25.51,26.87,23.59,1.22-.16,2.28-1.08,2.63-1.81,1.19-2.47-3.56-4.97-1.62-10.55s9-5.72,15.02-5.44Z"/></g></svg>