<?xml version="1.0" encoding="UTF-8"?><svg id="Capa_2" xmlns="http://www.w3.org/2000/svg" xmlns:xlink="http://www.w3.org/1999/xlink" viewBox="0 0 120.09 120.09"><defs><style>.cls-1{fill:url(#glass_apple);}.cls-2{fill:#f2f2f2;opacity:.2;}.cls-3{fill:#fff;}</style><linearGradient id="glass_apple" x1="17.59" y1="102.5" x2="102.5" y2="17.59" gradientUnits="userSpaceOnUse"><stop offset="0" stop-color="#fff" stop-opacity=".05"/><stop offset=".08" stop-color="#fff" stop-opacity=".06"/><stop offset=".12" stop-color="#fff" stop-opacity=".08"/><stop offset=".14" stop-color="#fff" stop-opacity=".13"/><stop offset=".15" stop-color="#fff" stop-opacity=".2"/><stop offset=".17" stop-color="#fff" stop-opacity=".28"/><stop offset=".18" stop-color="#fff" stop-opacity=".39"/><stop offset=".19" stop-color="#fff" stop-opacity=".52"/><stop offset=".21" stop-color="#fff" stop-opacity=".66"/><stop offset=".22" stop-color="#fff" stop-opacity=".83"/><stop offset=".22" stop-color="#fff"/><stop offset=".82" stop-color="#fff"/><stop offset=".83" stop-color="#fff" stop-opacity=".83"/><stop offset=".84" stop-color="#fff" stop-opacity=".66"/><stop offset=".85" stop-color="#fff" stop-opacity=".52"/><stop offset=".85" stop-color="#fff" stop-opacity=".39"/><stop offset=".87" stop-color="#fff" stop-opacity=".28"/><stop offset=".88" stop-color="#fff" stop-opacity=".2"/><stop offset=".89" stop-color="#fff" stop-opacity=".13"/><stop offset=".91" stop-color="#fff" stop-opacity=".08"/><stop offset=".93" stop-color="#fff" stop-opacity=".06"/><stop offset="1" stop-color="#fff" stop-opacity=".05"/></linearGradient></defs><g id="Capa_1-2"><circle class="cls-2" cx="60.04" cy="60.04" r="60.04"/><path class="cls-1" d="M60.04,2c32.01,0,58.04,26.04,58.04,58.04s-26.04,58.04-58.04,58.04S2,92.05,2,60.04,28.04,2,60.04,2M60.04,0C26.88,0,0,26.88,0,60.04s26.88,60.04,60.04,60.04,60.04-26.88,60.04-60.04S93.21,0,60.04,0h0Z"/><path class="cls-3" d="M51.35,49.67c-.04,1.11-1.52,1.47-2.32,1.48-.87.02-2.54-.53-2.54-1.76l-.04-7.68c0-1.17,1.74-1.66,2.56-1.63,1.1.05,2.05.57,2.65,1.77l-.32,7.81Z"/><path class="cls-3" d="M60.36,47.86c.09,1.88-.81,2.87-2.17,3.21-1.04.26-3.01-.33-3.14-1.93-.22-2.66-.36-5.39.18-7.96.21-.99,1.91-1.15,2.61-1.12.76.03,2.16.5,2.21,1.65l.3,6.16Z"/><path class="cls-3" d="M68.44,49.34c-.1,1.31-1.54,1.51-2.22,1.54-.79.04-2.58-.21-2.58-1.38l-.03-7.81c0-1.02,1.55-1.48,2.23-1.59s2.27.14,2.49,1.14c.53,2.48.34,5.27.12,8.09Z"/><path class="cls-3" d="M76.21,89.91l-31.36.14c-4.98.02-9.52-3.71-9.49-8.78l.08-16.09c.01-2.05,2.78-3.13,3.81-4.74-1.36-1.62-3.85-2.85-3.85-4.9l.02-16.62c0-4.82,4.78-8.79,9.45-8.8l24.35-.06c1.41,0,2.86.55,3.79,1.57l10.29,11.32c.85.93,1.42,2.15,1.41,3.53l-.21,35.44c-.02,4.09-4.14,7.98-8.31,8ZM41.1,81.46c.01,1.74,1.78,2.79,3.21,2.79l30.55.02c1.97,0,4.12-1.19,4.12-3.47l.03-34.32-9.82-10.74-24.32.03c-2.43,0-3.95,2.35-3.94,4.56l.09,14.32c3.63,1.94,4.48,5.75,3.12,8.84-.61,1.39-2.15,1.94-3.17,3.04l.13,14.93Z"/></g></svg>