<?xml version="1.0" encoding="UTF-8"?><svg id="Capa_2" xmlns="http://www.w3.org/2000/svg" xmlns:xlink="http://www.w3.org/1999/xlink" viewBox="0 0 120.09 120.09"><defs><style>.cls-1{fill:url(#glass_apple);}.cls-2{fill:#f2f2f2;opacity:.2;}.cls-3{fill:#fff;}</style><linearGradient id="glass_apple" x1="17.59" y1="102.5" x2="102.5" y2="17.59" gradientUnits="userSpaceOnUse"><stop offset="0" stop-color="#fff" stop-opacity=".05"/><stop offset=".08" stop-color="#fff" stop-opacity=".06"/><stop offset=".12" stop-color="#fff" stop-opacity=".08"/><stop offset=".14" stop-color="#fff" stop-opacity=".13"/><stop offset=".15" stop-color="#fff" stop-opacity=".2"/><stop offset=".17" stop-color="#fff" stop-opacity=".28"/><stop offset=".18" stop-color="#fff" stop-opacity=".39"/><stop offset=".19" stop-color="#fff" stop-opacity=".52"/><stop offset=".21" stop-color="#fff" stop-opacity=".66"/><stop offset=".22" stop-color="#fff" stop-opacity=".83"/><stop offset=".22" stop-color="#fff"/><stop offset=".82" stop-color="#fff"/><stop offset=".83" stop-color="#fff" stop-opacity=".83"/><stop offset=".84" stop-color="#fff" stop-opacity=".66"/><stop offset=".85" stop-color="#fff" stop-opacity=".52"/><stop offset=".85" stop-color="#fff" stop-opacity=".39"/><stop offset=".87" stop-color="#fff" stop-opacity=".28"/><stop offset=".88" stop-color="#fff" stop-opacity=".2"/><stop offset=".89" stop-color="#fff" stop-opacity=".13"/><stop offset=".91" stop-color="#fff" stop-opacity=".08"/><stop offset=".93" stop-color="#fff" stop-opacity=".06"/><stop offset="1" stop-color="#fff" stop-opacity=".05"/></linearGradient></defs><g id="Capa_1-2"><circle class="cls-2" cx="60.04" cy="60.04" r="60.04"/><path class="cls-1" d="M60.04,2c32.01,0,58.04,26.04,58.04,58.04s-26.04,58.04-58.04,58.04S2,92.05,2,60.04,28.04,2,60.04,2M60.04,0C26.88,0,0,26.88,0,60.04s26.88,60.04,60.04,60.04,60.04-26.88,60.04-60.04S93.21,0,60.04,0h0Z"/><path class="cls-3" d="M81.76,71.11c-2,12.97-13.89,20.8-26.18,18.39-12.12-2.38-19.78-14.42-16.93-26.83,2.19-9.55,11.75-22.12,18.15-30.62.99-1.32,2.19-1.99,3.73-1.89,1.42.09,2.35,1.08,3.32,2.37,5.37,7.21,10.82,14.13,14.91,22.18,2.58,5.07,3.91,10.54,3,16.39ZM68.73,82.45c7.78-4.89,10.08-14.22,6.88-22.42-2.36-5.5-5.38-10.33-8.91-15.14l-6.46-8.8-7.02,9.55c-3.31,4.51-6.18,9.01-8.38,14.19-3.58,8.26-1.12,17.97,6.73,22.72,5.12,3.1,11.91,3.21,17.16-.1Z"/><path class="cls-3" d="M52.87,67.87c.63,6.94,7.62,5.41,7.18,8.98-.16,1.31-1.5,2.43-3.07,2.08-4.99-1.1-8.8-5.44-9.19-10.53-.14-1.77.54-2.99,2.13-3.21,1.5-.21,2.8.91,2.96,2.67Z"/></g></svg>